<svg width="1139" height="527" viewBox="0 0 1139 527" fill="none" xmlns="http://www.w3.org/2000/svg">
<path d="M160.296 0C249.106 0 320.491 68.0124 320.491 152.325C320.491 236.638 249.106 304.65 160.296 304.65C143.433 304.65 127.695 302.402 112.519 297.905V379.408H0.101562V152.325C0.101562 68.0124 71.4865 0 160.296 0ZM160.296 200.103C187.276 200.103 208.074 179.305 208.074 152.325C208.074 125.907 187.276 104.548 160.296 104.548C133.316 104.548 112.519 125.907 112.519 152.325C112.519 179.305 133.316 200.103 160.296 200.103ZM712.893 0C773.598 0 825.31 39.346 825.31 94.9925V379.408H712.893V107.358C712.893 106.796 712.331 106.234 711.206 106.234C709.52 106.234 708.958 106.796 708.396 107.358L639.821 379.408H535.836L467.261 107.358C466.699 106.796 466.137 106.234 464.451 106.234C463.327 106.234 462.764 106.796 462.764 107.358V379.408H350.347V94.9925C350.347 39.346 402.059 0 462.764 0C520.097 0 566.75 34.2872 577.43 85.437L588.11 134.338L598.227 85.437C608.907 34.2872 655.56 0 712.893 0ZM1001.29 384.467C926.533 384.467 869.2 341.748 855.71 286.102L956.886 254.625C966.441 272.612 981.618 282.167 998.48 282.167C1014.78 282.167 1023.77 275.984 1023.77 265.867C1023.77 254.625 1011.41 246.756 978.245 238.324C902.364 218.651 855.71 180.43 855.71 121.411C855.71 53.3982 916.978 0.562079 995.67 0.562079C1063.12 0.562079 1118.2 40.4702 1133.94 97.8029L1033.33 129.842C1020.4 109.045 1006.91 98.9271 990.049 98.9271C978.807 98.9271 970.376 105.11 970.376 114.103C970.376 127.031 980.493 133.776 1007.47 140.521C1091.22 161.881 1138.44 197.292 1138.44 260.246C1138.44 331.068 1080.54 384.467 1001.29 384.467Z" fill="url(#paint0_linear_7_279)"/>
<path d="M131.741 516.417C126.921 516.417 122.574 515.598 118.7 513.961C114.857 512.323 111.676 509.992 109.156 506.968C106.667 503.912 105.045 500.306 104.289 496.148L112.983 494.778C114.085 499.061 116.369 502.416 119.834 504.842C123.33 507.235 127.441 508.432 132.166 508.432C135.221 508.432 137.977 507.96 140.434 507.015C142.923 506.039 144.891 504.653 146.34 502.857C147.789 501.062 148.514 498.935 148.514 496.479C148.514 494.967 148.246 493.675 147.711 492.604C147.207 491.502 146.498 490.572 145.584 489.816C144.702 489.029 143.694 488.368 142.561 487.832C141.427 487.297 140.245 486.856 139.017 486.509L121.677 481.359C119.787 480.792 117.96 480.083 116.196 479.233C114.432 478.351 112.857 477.264 111.471 475.973C110.085 474.65 108.982 473.075 108.164 471.248C107.345 469.389 106.935 467.2 106.935 464.68C106.935 460.648 107.975 457.215 110.053 454.38C112.164 451.514 115.015 449.324 118.605 447.812C122.196 446.3 126.244 445.56 130.748 445.592C135.316 445.623 139.395 446.442 142.986 448.049C146.608 449.624 149.601 451.892 151.963 454.852C154.357 457.813 155.963 461.357 156.782 465.483L147.852 467.043C147.38 464.271 146.325 461.893 144.687 459.908C143.08 457.892 141.064 456.349 138.639 455.278C136.213 454.175 133.552 453.608 130.654 453.577C127.882 453.545 125.378 453.986 123.141 454.9C120.905 455.813 119.125 457.089 117.802 458.727C116.479 460.333 115.818 462.192 115.818 464.302C115.818 466.381 116.416 468.066 117.613 469.358C118.81 470.618 120.275 471.626 122.007 472.382C123.771 473.106 125.488 473.705 127.157 474.177L140.104 477.91C141.584 478.319 143.285 478.886 145.206 479.611C147.159 480.335 149.049 481.359 150.876 482.682C152.703 483.973 154.215 485.706 155.412 487.879C156.609 490.021 157.208 492.73 157.208 496.006C157.208 499.282 156.546 502.196 155.223 504.747C153.932 507.298 152.12 509.44 149.79 511.173C147.459 512.874 144.75 514.165 141.663 515.047C138.576 515.961 135.268 516.417 131.741 516.417ZM177.986 515L162.394 463.924L170.757 463.971L182.144 501.298L193.625 463.971H201.043L212.477 501.298L223.912 463.971H232.227L216.635 515H209.643L197.311 476.209L184.979 515H177.986ZM241.705 454.947V446.253H250.115V454.947H241.705ZM241.705 515V463.971H250.115V515H241.705ZM292.783 515C289.759 515.598 286.767 515.835 283.806 515.709C280.876 515.614 278.262 515.031 275.963 513.961C273.663 512.858 271.915 511.157 270.718 508.858C269.71 506.842 269.159 504.81 269.064 502.763C269.001 500.684 268.97 498.337 268.97 495.723V449.797H277.38V495.345C277.38 497.424 277.396 499.203 277.427 500.684C277.49 502.164 277.821 503.44 278.42 504.511C279.554 506.527 281.349 507.708 283.806 508.054C286.294 508.401 289.287 508.306 292.783 507.771V515ZM258.622 470.917V463.971H292.783V470.917H258.622ZM322.519 516.417C317.353 516.417 312.959 515.268 309.336 512.968C305.746 510.637 303.005 507.44 301.115 503.377C299.225 499.313 298.249 494.683 298.186 489.486C298.249 484.162 299.241 479.485 301.162 475.453C303.115 471.39 305.903 468.224 309.525 465.956C313.148 463.688 317.51 462.554 322.613 462.554C328 462.554 332.63 463.877 336.504 466.523C340.41 469.169 343.025 472.791 344.348 477.39L336.032 479.894C334.961 476.933 333.213 474.634 330.787 472.996C328.393 471.358 325.637 470.539 322.519 470.539C319.022 470.539 316.14 471.358 313.872 472.996C311.604 474.602 309.919 476.839 308.817 479.705C307.714 482.54 307.147 485.8 307.116 489.486C307.179 495.156 308.486 499.739 311.037 503.235C313.62 506.7 317.447 508.432 322.519 508.432C325.858 508.432 328.63 507.676 330.835 506.165C333.039 504.621 334.709 502.4 335.843 499.502L344.348 501.723C342.584 506.479 339.828 510.118 336.079 512.638C332.331 515.157 327.811 516.417 322.519 516.417ZM390.325 515V489.438C390.325 487.013 390.105 484.682 389.664 482.446C389.254 480.209 388.514 478.209 387.443 476.445C386.403 474.65 384.986 473.232 383.19 472.193C381.427 471.153 379.19 470.634 376.481 470.634C374.371 470.634 372.449 470.996 370.717 471.72C369.016 472.413 367.551 473.484 366.323 474.933C365.094 476.382 364.134 478.209 363.441 480.414C362.779 482.587 362.448 485.155 362.448 488.116L356.92 486.415C356.92 481.469 357.802 477.233 359.566 473.705C361.362 470.145 363.866 467.421 367.079 465.531C370.323 463.609 374.134 462.649 378.513 462.649C381.82 462.649 384.639 463.168 386.97 464.208C389.301 465.247 391.238 466.633 392.782 468.366C394.325 470.067 395.538 471.988 396.42 474.13C397.302 476.24 397.916 478.398 398.263 480.603C398.641 482.776 398.83 484.84 398.83 486.793V515H390.325ZM353.944 515V446.962H361.503V484.525H362.448V515H353.944ZM430.032 515V446.962H469.72V455.372H438.442V476.776H464.051V485.186H438.442V515H430.032ZM490.863 516.417C487.051 516.417 483.854 515.724 481.271 514.339C478.72 512.921 476.783 511.063 475.46 508.763C474.168 506.464 473.523 503.944 473.523 501.203C473.523 498.526 474.026 496.211 475.034 494.258C476.074 492.273 477.523 490.635 479.381 489.344C481.24 488.021 483.46 486.982 486.043 486.226C488.469 485.564 491.178 484.997 494.17 484.525C497.194 484.021 500.249 483.564 503.336 483.154C506.423 482.745 509.305 482.351 511.983 481.973L508.959 483.721C509.053 479.186 508.14 475.831 506.219 473.657C504.329 471.484 501.053 470.397 496.391 470.397C493.304 470.397 490.595 471.106 488.264 472.523C485.965 473.909 484.342 476.177 483.397 479.327L475.412 476.918C476.641 472.445 479.019 468.933 482.547 466.381C486.075 463.83 490.721 462.554 496.485 462.554C501.116 462.554 505.085 463.389 508.392 465.058C511.731 466.696 514.125 469.185 515.574 472.523C516.298 474.098 516.755 475.815 516.944 477.674C517.133 479.501 517.227 481.422 517.227 483.438V515H509.762V502.763L511.51 503.897C509.589 508.023 506.896 511.141 503.431 513.252C499.997 515.362 495.808 516.417 490.863 516.417ZM492.138 509.377C495.162 509.377 497.777 508.842 499.982 507.771C502.218 506.668 504.014 505.235 505.368 503.471C506.723 501.676 507.605 499.723 508.014 497.612C508.487 496.038 508.738 494.289 508.77 492.368C508.833 490.415 508.864 488.919 508.864 487.879L511.794 489.155C509.053 489.533 506.36 489.895 503.714 490.242C501.068 490.588 498.564 490.966 496.202 491.376C493.839 491.754 491.713 492.21 489.823 492.746C488.437 493.187 487.13 493.754 485.902 494.447C484.705 495.14 483.728 496.038 482.972 497.14C482.248 498.211 481.886 499.55 481.886 501.156C481.886 502.542 482.232 503.865 482.925 505.125C483.649 506.385 484.752 507.409 486.232 508.196C487.744 508.984 489.713 509.377 492.138 509.377ZM548.79 516.37C542.71 516.37 537.718 515.047 533.812 512.401C529.937 509.724 527.559 505.991 526.677 501.203L535.276 499.833C535.969 502.605 537.56 504.81 540.049 506.448C542.537 508.054 545.624 508.858 549.309 508.858C552.806 508.858 555.546 508.133 557.531 506.684C559.515 505.235 560.507 503.267 560.507 500.778C560.507 499.329 560.177 498.164 559.515 497.282C558.854 496.368 557.483 495.518 555.404 494.73C553.357 493.943 550.254 492.998 546.096 491.895C541.592 490.698 538.048 489.454 535.465 488.163C532.883 486.871 531.04 485.375 529.937 483.674C528.835 481.973 528.284 479.91 528.284 477.485C528.284 474.492 529.103 471.878 530.741 469.641C532.379 467.373 534.662 465.625 537.592 464.397C540.553 463.168 543.986 462.554 547.892 462.554C551.766 462.554 555.231 463.168 558.287 464.397C561.342 465.625 563.799 467.373 565.657 469.641C567.547 471.878 568.666 474.492 569.012 477.485L560.413 479.044C560.003 476.303 558.68 474.146 556.444 472.571C554.239 470.996 551.388 470.161 547.892 470.067C544.584 469.941 541.891 470.523 539.812 471.815C537.765 473.106 536.741 474.854 536.741 477.059C536.741 478.288 537.119 479.343 537.875 480.225C538.663 481.107 540.096 481.942 542.175 482.729C544.285 483.517 547.341 484.414 551.341 485.422C555.845 486.556 559.389 487.801 561.972 489.155C564.586 490.478 566.445 492.053 567.547 493.88C568.65 495.675 569.201 497.896 569.201 500.542C569.201 505.456 567.39 509.33 563.767 512.165C560.145 514.969 555.152 516.37 548.79 516.37ZM608.112 515C605.089 515.598 602.096 515.835 599.135 515.709C596.206 515.614 593.591 515.031 591.292 513.961C588.993 512.858 587.244 511.157 586.047 508.858C585.039 506.842 584.488 504.81 584.394 502.763C584.331 500.684 584.299 498.337 584.299 495.723V449.797H592.709V495.345C592.709 497.424 592.725 499.203 592.757 500.684C592.82 502.164 593.15 503.44 593.749 504.511C594.883 506.527 596.678 507.708 599.135 508.054C601.624 508.401 604.616 508.306 608.112 507.771V515ZM573.952 470.917V463.971H608.112V470.917H573.952ZM637.39 515V446.962H680.387V454.947H645.801V476.256H674.717V484.241H645.801V507.015H680.387V515H637.39ZM706.25 516.417C702.439 516.417 699.242 515.724 696.659 514.339C694.107 512.921 692.17 511.063 690.847 508.763C689.556 506.464 688.91 503.944 688.91 501.203C688.91 498.526 689.414 496.211 690.422 494.258C691.461 492.273 692.91 490.635 694.769 489.344C696.627 488.021 698.848 486.982 701.431 486.226C703.856 485.564 706.565 484.997 709.558 484.525C712.581 484.021 715.637 483.564 718.724 483.154C721.811 482.745 724.693 482.351 727.37 481.973L724.346 483.721C724.441 479.186 723.527 475.831 721.606 473.657C719.716 471.484 716.44 470.397 711.778 470.397C708.691 470.397 705.982 471.106 703.651 472.523C701.352 473.909 699.73 476.177 698.785 479.327L690.8 476.918C692.028 472.445 694.406 468.933 697.934 466.381C701.462 463.83 706.108 462.554 711.873 462.554C716.503 462.554 720.472 463.389 723.779 465.058C727.118 466.696 729.512 469.185 730.961 472.523C731.686 474.098 732.142 475.815 732.331 477.674C732.52 479.501 732.615 481.422 732.615 483.438V515H725.15V502.763L726.898 503.897C724.976 508.023 722.283 511.141 718.818 513.252C715.385 515.362 711.196 516.417 706.25 516.417ZM707.526 509.377C710.55 509.377 713.164 508.842 715.369 507.771C717.606 506.668 719.401 505.235 720.755 503.471C722.11 501.676 722.992 499.723 723.401 497.612C723.874 496.038 724.126 494.289 724.157 492.368C724.22 490.415 724.252 488.919 724.252 487.879L727.181 489.155C724.441 489.533 721.748 489.895 719.102 490.242C716.456 490.588 713.952 490.966 711.589 491.376C709.227 491.754 707.101 492.21 705.211 492.746C703.825 493.187 702.518 493.754 701.289 494.447C700.092 495.14 699.116 496.038 698.36 497.14C697.635 498.211 697.273 499.55 697.273 501.156C697.273 502.542 697.619 503.865 698.312 505.125C699.037 506.385 700.139 507.409 701.62 508.196C703.132 508.984 705.1 509.377 707.526 509.377ZM744.899 515V463.971H752.412V476.303L751.184 474.697C751.782 473.122 752.554 471.673 753.499 470.35C754.475 469.027 755.562 467.94 756.759 467.09C758.082 466.019 759.578 465.2 761.248 464.633C762.917 464.066 764.618 463.735 766.35 463.641C768.083 463.515 769.705 463.625 771.217 463.971V471.862C769.453 471.39 767.516 471.264 765.405 471.484C763.295 471.704 761.342 472.476 759.547 473.799C757.909 474.965 756.633 476.382 755.719 478.052C754.837 479.721 754.223 481.532 753.877 483.485C753.53 485.407 753.357 487.375 753.357 489.391V515H744.899ZM816.486 515V489.438C816.486 487.013 816.265 484.682 815.824 482.446C815.415 480.209 814.674 478.209 813.603 476.445C812.564 474.65 811.147 473.232 809.351 472.193C807.587 471.153 805.351 470.634 802.642 470.634C800.531 470.634 798.61 470.996 796.877 471.72C795.177 472.413 793.712 473.484 792.483 474.933C791.255 476.382 790.294 478.209 789.601 480.414C788.94 482.587 788.609 485.155 788.609 488.116L783.081 486.415C783.081 481.469 783.963 477.233 785.727 473.705C787.522 470.145 790.026 467.421 793.239 465.531C796.484 463.609 800.295 462.649 804.673 462.649C807.981 462.649 810.8 463.168 813.131 464.208C815.462 465.247 817.399 466.633 818.943 468.366C820.486 470.067 821.699 471.988 822.581 474.13C823.463 476.24 824.077 478.398 824.423 480.603C824.801 482.776 824.99 484.84 824.99 486.793V515H816.486ZM780.104 515V463.971H787.664V477.626H788.609V515H780.104ZM856.192 515V446.962H895.881V455.372H864.602V476.776H890.211V485.186H864.602V515H856.192ZM917.023 516.417C913.212 516.417 910.015 515.724 907.432 514.339C904.88 512.921 902.943 511.063 901.62 508.763C900.329 506.464 899.683 503.944 899.683 501.203C899.683 498.526 900.187 496.211 901.195 494.258C902.235 492.273 903.683 490.635 905.542 489.344C907.4 488.021 909.621 486.982 912.204 486.226C914.629 485.564 917.338 484.997 920.331 484.525C923.355 484.021 926.41 483.564 929.497 483.154C932.584 482.745 935.466 482.351 938.143 481.973L935.12 483.721C935.214 479.186 934.301 475.831 932.379 473.657C930.489 471.484 927.213 470.397 922.551 470.397C919.465 470.397 916.756 471.106 914.425 472.523C912.125 473.909 910.503 476.177 909.558 479.327L901.573 476.918C902.802 472.445 905.18 468.933 908.708 466.381C912.235 463.83 916.882 462.554 922.646 462.554C927.276 462.554 931.245 463.389 934.553 465.058C937.891 466.696 940.285 469.185 941.734 472.523C942.459 474.098 942.916 475.815 943.105 477.674C943.294 479.501 943.388 481.422 943.388 483.438V515H935.923V502.763L937.671 503.897C935.75 508.023 933.056 511.141 929.591 513.252C926.158 515.362 921.969 516.417 917.023 516.417ZM918.299 509.377C921.323 509.377 923.937 508.842 926.142 507.771C928.379 506.668 930.174 505.235 931.529 503.471C932.883 501.676 933.765 499.723 934.175 497.612C934.647 496.038 934.899 494.289 934.931 492.368C934.994 490.415 935.025 488.919 935.025 487.879L937.954 489.155C935.214 489.533 932.521 489.895 929.875 490.242C927.229 490.588 924.725 490.966 922.362 491.376C920 491.754 917.874 492.21 915.984 492.746C914.598 493.187 913.291 493.754 912.062 494.447C910.865 495.14 909.889 496.038 909.133 497.14C908.408 498.211 908.046 499.55 908.046 501.156C908.046 502.542 908.393 503.865 909.086 505.125C909.81 506.385 910.913 507.409 912.393 508.196C913.905 508.984 915.874 509.377 918.299 509.377ZM974.95 516.37C968.871 516.37 963.878 515.047 959.972 512.401C956.098 509.724 953.72 505.991 952.838 501.203L961.437 499.833C962.13 502.605 963.721 504.81 966.209 506.448C968.698 508.054 971.785 508.858 975.47 508.858C978.966 508.858 981.707 508.133 983.691 506.684C985.676 505.235 986.668 503.267 986.668 500.778C986.668 499.329 986.337 498.164 985.676 497.282C985.014 496.368 983.644 495.518 981.565 494.73C979.518 493.943 976.415 492.998 972.257 491.895C967.753 490.698 964.209 489.454 961.626 488.163C959.043 486.871 957.2 485.375 956.098 483.674C954.996 481.973 954.444 479.91 954.444 477.485C954.444 474.492 955.263 471.878 956.901 469.641C958.539 467.373 960.823 465.625 963.752 464.397C966.713 463.168 970.147 462.554 974.053 462.554C977.927 462.554 981.392 463.168 984.447 464.397C987.503 465.625 989.96 467.373 991.818 469.641C993.708 471.878 994.826 474.492 995.173 477.485L986.573 479.044C986.164 476.303 984.841 474.146 982.605 472.571C980.4 470.996 977.549 470.161 974.053 470.067C970.745 469.941 968.052 470.523 965.973 471.815C963.926 473.106 962.902 474.854 962.902 477.059C962.902 478.288 963.28 479.343 964.036 480.225C964.823 481.107 966.256 481.942 968.335 482.729C970.446 483.517 973.501 484.414 977.502 485.422C982.006 486.556 985.55 487.801 988.133 489.155C990.747 490.478 992.605 492.053 993.708 493.88C994.81 495.675 995.362 497.896 995.362 500.542C995.362 505.456 993.55 509.33 989.928 512.165C986.306 514.969 981.313 516.37 974.95 516.37ZM1034.27 515C1031.25 515.598 1028.26 515.835 1025.3 515.709C1022.37 515.614 1019.75 515.031 1017.45 513.961C1015.15 512.858 1013.4 511.157 1012.21 508.858C1011.2 506.842 1010.65 504.81 1010.55 502.763C1010.49 500.684 1010.46 498.337 1010.46 495.723V449.797H1018.87V495.345C1018.87 497.424 1018.89 499.203 1018.92 500.684C1018.98 502.164 1019.31 503.44 1019.91 504.511C1021.04 506.527 1022.84 507.708 1025.3 508.054C1027.78 508.401 1030.78 508.306 1034.27 507.771V515ZM1000.11 470.917V463.971H1034.27V470.917H1000.11Z" fill="#FFA4B5"/>
<defs>
<linearGradient id="paint0_linear_7_279" x1="1046.97" y1="36.8436" x2="142.394" y2="346.837" gradientUnits="userSpaceOnUse">
<stop stop-color="#88C8FF"/>
<stop offset="0.298077" stop-color="#C891FF"/>
<stop offset="0.682692" stop-color="#FF86E0"/>
<stop offset="1" stop-color="#FFB3A0"/>
</linearGradient>
</defs>
</svg>
